<svg xmlns="http://www.w3.org/2000/svg" width="800" height="352" viewBox="0 0 800 352"><defs><filter id="sh" x="-20%" y="-20%" width="140%" height="160%"><feDropShadow dx="0" dy="6" stdDeviation="9" flood-color="#000000" flood-opacity="0.13"/></filter><linearGradient id="bg1" x1="0" y1="0" x2="1" y2="1"><stop offset="0" stop-color="#F4FBF7"/><stop offset="1" stop-color="#D9EEE3"/></linearGradient><pattern id="dots2" width="22" height="22" patternUnits="userSpaceOnUse"><circle cx="2" cy="2" r="1.2" fill="#1D4B3E" opacity="0.07"/></pattern><radialGradient id="glow3" cx="0.15" cy="0.2" r="0.6"><stop offset="0" stop-color="#8FD5BC" stop-opacity="0.55"/><stop offset="1" stop-color="#8FD5BC" stop-opacity="0"/></radialGradient></defs><rect width="800" height="352" fill="url(#bg1)"/><rect width="800" height="352" fill="url(#dots2)"/><rect width="800" height="352" fill="url(#glow3)"/><path d="M82 61.0 C 132 61.0, 170 176, 230 176" fill="none" stroke="#9CC7B5" stroke-width="1.6" stroke-linecap="round" stroke-linejoin="round" stroke-dasharray="4 6" opacity="0.8"/><path d="M82 133.0 C 132 133.0, 170 176, 230 176" fill="none" stroke="#D9468F" stroke-width="2.6" stroke-linecap="round" stroke-linejoin="round" opacity="1"/><path d="M82 205.0 C 132 205.0, 170 176, 230 176" fill="none" stroke="#9CC7B5" stroke-width="1.6" stroke-linecap="round" stroke-linejoin="round" stroke-dasharray="4 6" opacity="0.8"/><path d="M82 277.0 C 132 277.0, 170 176, 230 176" fill="none" stroke="#9CC7B5" stroke-width="1.6" stroke-linecap="round" stroke-linejoin="round" stroke-dasharray="4 6" opacity="0.8"/><rect x="40.0" y="40.0" width="42.0" height="42.0" rx="12.6" fill="#FFFFFF" stroke="#E3E8DC" stroke-width="1.2"/><g transform="translate(49.2 49.2) scale(0.9800)" fill="none" stroke="#1FA855" stroke-width="2" stroke-linecap="round" stroke-linejoin="round"><path d="M2.992 16.342a2 2 0 0 1 .094 1.167l-1.065 3.29a1 1 0 0 0 1.236 1.168l3.413-.998a2 2 0 0 1 1.099.092 10 10 0 1 0-4.777-4.719"/></g><rect x="40.0" y="112.0" width="42.0" height="42.0" rx="12.6" fill="#D9468F" filter="url(#sh)"/><g transform="translate(49.2 121.2) scale(0.9800)" fill="none" stroke="#FFFFFF" stroke-width="2.2" stroke-linecap="round" stroke-linejoin="round"><path d="M13.997 4a2 2 0 0 1 1.76 1.05l.486.9A2 2 0 0 0 18.003 7H20a2 2 0 0 1 2 2v9a2 2 0 0 1-2 2H4a2 2 0 0 1-2-2V9a2 2 0 0 1 2-2h1.997a2 2 0 0 0 1.759-1.048l.489-.904A2 2 0 0 1 10.004 4z"/><circle cx="12" cy="13" r="3"/></g><rect x="40.0" y="184.0" width="42.0" height="42.0" rx="12.6" fill="#FFFFFF" stroke="#E3E8DC" stroke-width="1.2"/><g transform="translate(49.2 193.2) scale(0.9800)" fill="none" stroke="#2563EB" stroke-width="2" stroke-linecap="round" stroke-linejoin="round"><path d="m22 7-8.991 5.727a2 2 0 0 1-2.009 0L2 7"/><rect x="2" y="4" width="20" height="16" rx="2"/></g><rect x="40.0" y="256.0" width="42.0" height="42.0" rx="12.6" fill="#FFFFFF" stroke="#E3E8DC" stroke-width="1.2"/><g transform="translate(49.2 265.2) scale(0.9800)" fill="none" stroke="#0891B2" stroke-width="2" stroke-linecap="round" stroke-linejoin="round"><circle cx="12" cy="12" r="10"/><path d="M12 2a14.5 14.5 0 0 0 0 20 14.5 14.5 0 0 0 0-20"/><path d="M2 12h20"/></g><rect x="240.0" y="40.0" width="300.0" height="272.0" rx="14" fill="#FFFFFF" filter="url(#sh)"/><rect x="258.0" y="56.0" width="103.1" height="25.0" rx="12.5" fill="#FFFFFF" stroke="#D9468F55" stroke-width="1.5"/><g transform="translate(268.0 62.2) scale(0.5208)" fill="none" stroke="#D9468F" stroke-width="2.2" stroke-linecap="round" stroke-linejoin="round"><path d="M13.997 4a2 2 0 0 1 1.76 1.05l.486.9A2 2 0 0 0 18.003 7H20a2 2 0 0 1 2 2v9a2 2 0 0 1-2 2H4a2 2 0 0 1-2-2V9a2 2 0 0 1 2-2h1.997a2 2 0 0 0 1.759-1.048l.489-.904A2 2 0 0 1 10.004 4z"/><circle cx="12" cy="13" r="3"/></g><text x="283.6" y="72.9" font-family="'Plus Jakarta Sans','Inter','Segoe UI',Roboto,'Helvetica Neue',Arial,sans-serif" font-size="12.5" font-weight="700" fill="#D9468F" text-anchor="start" opacity="1">Instagram</text><rect x="334.7" y="100.0" width="185.3" height="59.7" rx="12" fill="#DCF5E7" filter="url(#sh)"/><path d="M516.0 100 L527.0 100 L510.0 112 Z" fill="#DCF5E7" opacity="1"/><text x="346.7" y="125.5" font-family="'Plus Jakarta Sans','Inter','Segoe UI',Roboto,'Helvetica Neue',Arial,sans-serif" font-size="15" font-weight="400" fill="#1B2E1F" text-anchor="start" opacity="1">Need a 2BHK under ₹60L</text><text x="346.7" y="146.2" font-family="'Plus Jakarta Sans','Inter','Segoe UI',Roboto,'Helvetica Neue',Arial,sans-serif" font-size="15" font-weight="400" fill="#1B2E1F" text-anchor="start" opacity="1">near Whitefield</text><circle cx="274.0" cy="189.7" r="16" fill="#7C3AED"/><g transform="translate(265.6 181.3) scale(0.7000)" fill="none" stroke="#FFFFFF" stroke-width="2" stroke-linecap="round" stroke-linejoin="round"><path d="M12 8V4H8"/><rect width="16" height="12" x="4" y="8" rx="2"/><path d="M2 14h2"/><path d="M20 14h2"/><path d="M15 13v2"/><path d="M9 13v2"/></g><rect x="296.0" y="171.7" width="226.0" height="96.0" rx="10" fill="#F5F0FF"/><text x="310.0" y="197.7" font-family="'Plus Jakarta Sans','Inter','Segoe UI',Roboto,'Helvetica Neue',Arial,sans-serif" font-size="14" font-weight="700" fill="#1B2E1F" text-anchor="start" opacity="1">3 matches found 🏡</text><text x="310.0" y="219.7" font-family="'Plus Jakarta Sans','Inter','Segoe UI',Roboto,'Helvetica Neue',Arial,sans-serif" font-size="13" font-weight="400" fill="#1B2E1F" text-anchor="start" opacity="1">Palm Grove · ₹54L</text><text x="310.0" y="239.7" font-family="'Plus Jakarta Sans','Inter','Segoe UI',Roboto,'Helvetica Neue',Arial,sans-serif" font-size="13" font-weight="400" fill="#1B2E1F" text-anchor="start" opacity="1">Green Vista · ₹58L</text><text x="310.0" y="259.7" font-family="'Plus Jakarta Sans','Inter','Segoe UI',Roboto,'Helvetica Neue',Arial,sans-serif" font-size="13" font-weight="700" fill="#2A7D66" text-anchor="start" opacity="1">Book a site visit?</text><rect x="564.0" y="70.0" width="200.0" height="210.0" rx="14" fill="#FFFFFF" filter="url(#sh)"/><text x="582.0" y="100.0" font-family="'Plus Jakarta Sans','Inter','Segoe UI',Roboto,'Helvetica Neue',Arial,sans-serif" font-size="15" font-weight="800" fill="#1B2E1F" text-anchor="start" opacity="1">AI qualified</text><text x="582.0" y="132.0" font-family="'Plus Jakarta Sans','Inter','Segoe UI',Roboto,'Helvetica Neue',Arial,sans-serif" font-size="12.5" font-weight="600" fill="#5F6F64" text-anchor="start" opacity="1">Budget</text><text x="670.0" y="132.0" font-family="'Plus Jakarta Sans','Inter','Segoe UI',Roboto,'Helvetica Neue',Arial,sans-serif" font-size="13" font-weight="700" fill="#1B2E1F" text-anchor="start" opacity="1">₹60L</text><text x="582.0" y="158.0" font-family="'Plus Jakarta Sans','Inter','Segoe UI',Roboto,'Helvetica Neue',Arial,sans-serif" font-size="12.5" font-weight="600" fill="#5F6F64" text-anchor="start" opacity="1">Area</text><text x="670.0" y="158.0" font-family="'Plus Jakarta Sans','Inter','Segoe UI',Roboto,'Helvetica Neue',Arial,sans-serif" font-size="13" font-weight="700" fill="#1B2E1F" text-anchor="start" opacity="1">Whitefield</text><text x="582.0" y="184.0" font-family="'Plus Jakarta Sans','Inter','Segoe UI',Roboto,'Helvetica Neue',Arial,sans-serif" font-size="12.5" font-weight="600" fill="#5F6F64" text-anchor="start" opacity="1">Timeline</text><text x="670.0" y="184.0" font-family="'Plus Jakarta Sans','Inter','Segoe UI',Roboto,'Helvetica Neue',Arial,sans-serif" font-size="13" font-weight="700" fill="#1B2E1F" text-anchor="start" opacity="1">3 months</text><text x="582.0" y="210.0" font-family="'Plus Jakarta Sans','Inter','Segoe UI',Roboto,'Helvetica Neue',Arial,sans-serif" font-size="12.5" font-weight="600" fill="#5F6F64" text-anchor="start" opacity="1">Score</text><text x="670.0" y="210.0" font-family="'Plus Jakarta Sans','Inter','Segoe UI',Roboto,'Helvetica Neue',Arial,sans-serif" font-size="13" font-weight="700" fill="#1B2E1F" text-anchor="start" opacity="1">Hot 🔥</text><rect x="582.0" y="236.0" width="137.5" height="24.0" rx="12.0" fill="#E6F4EE"/><g transform="translate(592.0 242.0) scale(0.5000)" fill="none" stroke="#1D4B3E" stroke-width="2.2" stroke-linecap="round" stroke-linejoin="round"><circle cx="12" cy="8" r="5"/><path d="M20 21a8 8 0 0 0-16 0"/></g><text x="607.0" y="252.2" font-family="'Plus Jakarta Sans','Inter','Segoe UI',Roboto,'Helvetica Neue',Arial,sans-serif" font-size="12" font-weight="700" fill="#1D4B3E" text-anchor="start" opacity="1">Assigned to Priya</text></svg>