<svg xmlns="http://www.w3.org/2000/svg" width="896" height="640" viewBox="0 0 896 640"><defs><filter id="sh" x="-20%" y="-20%" width="140%" height="160%"><feDropShadow dx="0" dy="6" stdDeviation="9" flood-color="#000000" flood-opacity="0.13"/></filter><linearGradient id="bg1" x1="0" y1="0" x2="1" y2="1"><stop offset="0" stop-color="#F4FBF7"/><stop offset="1" stop-color="#D9EEE3"/></linearGradient><pattern id="dots2" width="22" height="22" patternUnits="userSpaceOnUse"><circle cx="2" cy="2" r="1.2" fill="#1D4B3E" opacity="0.07"/></pattern><radialGradient id="glow3" cx="0.2" cy="0.15" r="0.6"><stop offset="0" stop-color="#8FD5BC" stop-opacity="0.55"/><stop offset="1" stop-color="#8FD5BC" stop-opacity="0"/></radialGradient><clipPath id="ph4"><rect x="320" y="40" width="320" height="560" rx="26"/></clipPath><pattern id="wp5" width="26" height="26" patternUnits="userSpaceOnUse"><circle cx="4" cy="4" r="1.4" fill="#1D4B3E" opacity="0.08"/></pattern></defs><rect width="896" height="640" fill="url(#bg1)"/><rect width="896" height="640" fill="url(#dots2)"/><rect width="896" height="640" fill="url(#glow3)"/><path d="M116 173.0 C 166 173.0, 240 330, 300 330" fill="none" stroke="#9CC7B5" stroke-width="1.6" stroke-linecap="round" stroke-linejoin="round" stroke-dasharray="4 6" opacity="0.8"/><path d="M116 245.0 C 166 245.0, 240 330, 300 330" fill="none" stroke="#9CC7B5" stroke-width="1.6" stroke-linecap="round" stroke-linejoin="round" stroke-dasharray="4 6" opacity="0.8"/><path d="M116 317.0 C 166 317.0, 240 330, 300 330" fill="none" stroke="#0891B2" stroke-width="2.6" stroke-linecap="round" stroke-linejoin="round" opacity="1"/><path d="M116 389.0 C 166 389.0, 240 330, 300 330" fill="none" stroke="#9CC7B5" stroke-width="1.6" stroke-linecap="round" stroke-linejoin="round" stroke-dasharray="4 6" opacity="0.8"/><rect x="70.0" y="150.0" width="46.0" height="46.0" rx="13.799999999999999" fill="#FFFFFF" stroke="#E3E8DC" stroke-width="1.2"/><g transform="translate(80.1 160.1) scale(1.0733)" fill="none" stroke="#1FA855" stroke-width="2" stroke-linecap="round" stroke-linejoin="round"><path d="M2.992 16.342a2 2 0 0 1 .094 1.167l-1.065 3.29a1 1 0 0 0 1.236 1.168l3.413-.998a2 2 0 0 1 1.099.092 10 10 0 1 0-4.777-4.719"/></g><rect x="70.0" y="222.0" width="46.0" height="46.0" rx="13.799999999999999" fill="#FFFFFF" stroke="#E3E8DC" stroke-width="1.2"/><g transform="translate(80.1 232.1) scale(1.0733)" fill="none" stroke="#D9468F" stroke-width="2" stroke-linecap="round" stroke-linejoin="round"><path d="M13.997 4a2 2 0 0 1 1.76 1.05l.486.9A2 2 0 0 0 18.003 7H20a2 2 0 0 1 2 2v9a2 2 0 0 1-2 2H4a2 2 0 0 1-2-2V9a2 2 0 0 1 2-2h1.997a2 2 0 0 0 1.759-1.048l.489-.904A2 2 0 0 1 10.004 4z"/><circle cx="12" cy="13" r="3"/></g><rect x="70.0" y="294.0" width="46.0" height="46.0" rx="13.799999999999999" fill="#0891B2" filter="url(#sh)"/><g transform="translate(80.1 304.1) scale(1.0733)" fill="none" stroke="#FFFFFF" stroke-width="2.2" stroke-linecap="round" stroke-linejoin="round"><circle cx="12" cy="12" r="10"/><path d="M12 2a14.5 14.5 0 0 0 0 20 14.5 14.5 0 0 0 0-20"/><path d="M2 12h20"/></g><rect x="70.0" y="366.0" width="46.0" height="46.0" rx="13.799999999999999" fill="#FFFFFF" stroke="#E3E8DC" stroke-width="1.2"/><g transform="translate(80.1 376.1) scale(1.0733)" fill="none" stroke="#2563EB" stroke-width="2" stroke-linecap="round" stroke-linejoin="round"><path d="m22 7-8.991 5.727a2 2 0 0 1-2.009 0L2 7"/><rect x="2" y="4" width="20" height="16" rx="2"/></g><rect x="312.0" y="32.0" width="336.0" height="576.0" rx="34" fill="#0F172A" filter="url(#sh)"/><g clip-path="url(#ph4)"><rect x="320.0" y="40.0" width="320.0" height="560.0" rx="0" fill="#F5F8F2"/><rect x="320.0" y="40.0" width="320.0" height="560.0" rx="0" fill="url(#wp5)"/><rect x="320.0" y="40.0" width="320.0" height="64.0" rx="0" fill="#1D4B3E"/><g transform="translate(328.0 60.0) scale(0.9167)" fill="none" stroke="#FFFFFF" stroke-width="2.4" stroke-linecap="round" stroke-linejoin="round"><path d="m15 18-6-6 6-6"/></g><circle cx="370.0" cy="72.0" r="17" fill="#2A7D66"/><text x="370.0" y="78.1" font-family="'Plus Jakarta Sans','Inter','Segoe UI',Roboto,'Helvetica Neue',Arial,sans-serif" font-size="16.15" font-weight="700" fill="#FFFFFF" text-anchor="middle" opacity="1">BC</text><text x="396.0" y="69.0" font-family="'Plus Jakarta Sans','Inter','Segoe UI',Roboto,'Helvetica Neue',Arial,sans-serif" font-size="15" font-weight="700" fill="#FFFFFF" text-anchor="start" opacity="1">Brightway Clinic</text><text x="396.0" y="87.0" font-family="'Plus Jakarta Sans','Inter','Segoe UI',Roboto,'Helvetica Neue',Arial,sans-serif" font-size="11.5" font-weight="400" fill="#FFFFFF" text-anchor="start" opacity="0.8">AI assistant · website chat</text><g transform="translate(606.0 62.0) scale(0.7500)" fill="none" stroke="#FFFFFF" stroke-width="2" stroke-linecap="round" stroke-linejoin="round"><path d="M13.832 16.568a1 1 0 0 0 1.213-.303l.355-.465A2 2 0 0 1 17 15h3a2 2 0 0 1 2 2v3a2 2 0 0 1-2 2A18 18 0 0 1 2 4a2 2 0 0 1 2-2h3a2 2 0 0 1 2 2v3a2 2 0 0 1-.8 1.6l-.468.351a1 1 0 0 0-.292 1.233 14 14 0 0 0 6.392 6.384"/></g><rect x="370.9" y="120.0" width="255.1" height="67.7" rx="12" fill="#DCF5E7" filter="url(#sh)"/><path d="M622.0 120 L633.0 120 L616.0 132 Z" fill="#DCF5E7" opacity="1"/><text x="382.9" y="145.5" font-family="'Plus Jakarta Sans','Inter','Segoe UI',Roboto,'Helvetica Neue',Arial,sans-serif" font-size="15" font-weight="400" fill="#1B2E1F" text-anchor="start" opacity="1">Do you do laser hair removal?</text><text x="382.9" y="166.2" font-family="'Plus Jakarta Sans','Inter','Segoe UI',Roboto,'Helvetica Neue',Arial,sans-serif" font-size="15" font-weight="400" fill="#1B2E1F" text-anchor="start" opacity="1">What does it cost?</text><text x="614.0" y="179.7" font-family="'Plus Jakarta Sans','Inter','Segoe UI',Roboto,'Helvetica Neue',Arial,sans-serif" font-size="10.200000000000001" font-weight="400" fill="#5F6F64" text-anchor="end" opacity="1">10:02</text><g transform="translate(574.3 167.4) scale(0.5000)" fill="none" stroke="#4FA3F7" stroke-width="2.4" stroke-linecap="round" stroke-linejoin="round"><path d="M18 6 7 17l-5-5"/><path d="m22 10-7.5 7.5L13 16"/></g><rect x="334.0" y="201.7" width="291.2" height="157.4" rx="12" fill="#FFFFFF" filter="url(#sh)"/><path d="M338 201.7 L327 201.7 L344 213.7 Z" fill="#FFFFFF" opacity="1"/><text x="346.0" y="227.2" font-family="'Plus Jakarta Sans','Inter','Segoe UI',Roboto,'Helvetica Neue',Arial,sans-serif" font-size="15" font-weight="400" fill="#1B2E1F" text-anchor="start" opacity="1">Yes! 6 sessions start at ₹14,999 ✨</text><text x="346.0" y="247.9" font-family="'Plus Jakarta Sans','Inter','Segoe UI',Roboto,'Helvetica Neue',Arial,sans-serif" font-size="15" font-weight="400" fill="#1B2E1F" text-anchor="start" opacity="1">First consultation is free.</text><text x="346.0" y="268.6" font-family="'Plus Jakarta Sans','Inter','Segoe UI',Roboto,'Helvetica Neue',Arial,sans-serif" font-size="15" font-weight="400" fill="#1B2E1F" text-anchor="start" opacity="1">Want me to book one?</text><text x="613.2" y="282.1" font-family="'Plus Jakarta Sans','Inter','Segoe UI',Roboto,'Helvetica Neue',Arial,sans-serif" font-size="10.200000000000001" font-weight="400" fill="#5F6F64" text-anchor="end" opacity="1">10:02</text><line x1="334.0" y1="290.1" x2="625.2" y2="290.1" stroke="#E3E8DC" stroke-width="1.2" stroke-linecap="round" opacity="1"/><g transform="translate(406.8 299.8) scale(0.6250)" fill="none" stroke="#2A7D66" stroke-width="2" stroke-linecap="round" stroke-linejoin="round"><path d="M8 2v4"/><path d="M16 2v4"/><rect width="18" height="18" x="3" y="4" rx="2"/><path d="M3 10h18"/><path d="m9 16 2 2 4-4"/></g><text x="424.8" y="312.3" font-family="'Plus Jakarta Sans','Inter','Segoe UI',Roboto,'Helvetica Neue',Arial,sans-serif" font-size="14.25" font-weight="600" fill="#2A7D66" text-anchor="start" opacity="1">Book free consult</text><line x1="334.0" y1="324.6" x2="625.2" y2="324.6" stroke="#E3E8DC" stroke-width="1.2" stroke-linecap="round" opacity="1"/><g transform="translate(425.4 334.3) scale(0.6250)" fill="none" stroke="#2A7D66" stroke-width="2" stroke-linecap="round" stroke-linejoin="round"><path d="M6 3h12"/><path d="M6 8h12"/><path d="m6 13 8.5 8"/><path d="M6 13h3"/><path d="M9 13c6.667 0 6.667-10 0-10"/></g><text x="443.4" y="346.8" font-family="'Plus Jakarta Sans','Inter','Segoe UI',Roboto,'Helvetica Neue',Arial,sans-serif" font-size="14.25" font-weight="600" fill="#2A7D66" text-anchor="start" opacity="1">See all prices</text><rect x="442.7" y="373.1" width="183.3" height="47.0" rx="12" fill="#DCF5E7" filter="url(#sh)"/><path d="M622.0 373.09999999999997 L633.0 373.09999999999997 L616.0 385.09999999999997 Z" fill="#DCF5E7" opacity="1"/><text x="454.7" y="398.6" font-family="'Plus Jakarta Sans','Inter','Segoe UI',Roboto,'Helvetica Neue',Arial,sans-serif" font-size="15" font-weight="400" fill="#1B2E1F" text-anchor="start" opacity="1">Book free consult</text><text x="614.0" y="412.1" font-family="'Plus Jakarta Sans','Inter','Segoe UI',Roboto,'Helvetica Neue',Arial,sans-serif" font-size="10.200000000000001" font-weight="400" fill="#5F6F64" text-anchor="end" opacity="1">10:03</text><g transform="translate(574.3 399.8) scale(0.5000)" fill="none" stroke="#4FA3F7" stroke-width="2.4" stroke-linecap="round" stroke-linejoin="round"><path d="M18 6 7 17l-5-5"/><path d="m22 10-7.5 7.5L13 16"/></g><rect x="334.0" y="434.1" width="256.7" height="67.7" rx="12" fill="#FFFFFF" filter="url(#sh)"/><path d="M338 434.09999999999997 L327 434.09999999999997 L344 446.09999999999997 Z" fill="#FFFFFF" opacity="1"/><text x="346.0" y="459.6" font-family="'Plus Jakarta Sans','Inter','Segoe UI',Roboto,'Helvetica Neue',Arial,sans-serif" font-size="15" font-weight="400" fill="#1B2E1F" text-anchor="start" opacity="1">Booked ✅ Thu, 11 AM. Your lead</text><text x="346.0" y="480.3" font-family="'Plus Jakarta Sans','Inter','Segoe UI',Roboto,'Helvetica Neue',Arial,sans-serif" font-size="15" font-weight="400" fill="#1B2E1F" text-anchor="start" opacity="1">is with Dr. Rao&#x27;s team.</text><text x="578.7" y="493.8" font-family="'Plus Jakarta Sans','Inter','Segoe UI',Roboto,'Helvetica Neue',Arial,sans-serif" font-size="10.200000000000001" font-weight="400" fill="#5F6F64" text-anchor="end" opacity="1">10:03</text></g><rect x="666.0" y="130.0" width="200.0" height="96.0" rx="14" fill="#FFFFFF" filter="url(#sh)"/><circle cx="700.0" cy="178.0" r="20" fill="#7C3AED"/><g transform="translate(689.5 167.5) scale(0.8750)" fill="none" stroke="#FFFFFF" stroke-width="2" stroke-linecap="round" stroke-linejoin="round"><path d="M12 8V4H8"/><rect width="16" height="12" x="4" y="8" rx="2"/><path d="M2 14h2"/><path d="M20 14h2"/><path d="M15 13v2"/><path d="M9 13v2"/></g><text x="730.0" y="170.0" font-family="'Plus Jakarta Sans','Inter','Segoe UI',Roboto,'Helvetica Neue',Arial,sans-serif" font-size="15" font-weight="700" fill="#1B2E1F" text-anchor="start" opacity="1">AI agent</text><text x="730.0" y="192.0" font-family="'Plus Jakarta Sans','Inter','Segoe UI',Roboto,'Helvetica Neue',Arial,sans-serif" font-size="12.5" font-weight="400" fill="#5F6F64" text-anchor="start" opacity="1">same brain on</text><text x="730.0" y="208.0" font-family="'Plus Jakarta Sans','Inter','Segoe UI',Roboto,'Helvetica Neue',Arial,sans-serif" font-size="12.5" font-weight="400" fill="#5F6F64" text-anchor="start" opacity="1">every channel</text><rect x="666.0" y="420.0" width="200.0" height="100.0" rx="14" fill="#FFFFFF" filter="url(#sh)"/><text x="686.0" y="452.0" font-family="'Plus Jakarta Sans','Inter','Segoe UI',Roboto,'Helvetica Neue',Arial,sans-serif" font-size="13" font-weight="600" fill="#5F6F64" text-anchor="start" opacity="1">Lead created</text><text x="686.0" y="482.0" font-family="'Plus Jakarta Sans','Inter','Segoe UI',Roboto,'Helvetica Neue',Arial,sans-serif" font-size="20" font-weight="800" fill="#1D4B3E" text-anchor="start" opacity="1">Hot · ₹15k</text><text x="686.0" y="504.0" font-family="'Plus Jakarta Sans','Inter','Segoe UI',Roboto,'Helvetica Neue',Arial,sans-serif" font-size="12" font-weight="400" fill="#5F6F64" text-anchor="start" opacity="1">source: Website</text></svg>