<svg xmlns="http://www.w3.org/2000/svg" width="800" height="352" viewBox="0 0 800 352"><defs><filter id="sh" x="-20%" y="-20%" width="140%" height="160%"><feDropShadow dx="0" dy="6" stdDeviation="9" flood-color="#000000" flood-opacity="0.13"/></filter><linearGradient id="bg1" x1="0" y1="0" x2="1" y2="1"><stop offset="0" stop-color="#F4FBF7"/><stop offset="1" stop-color="#D9EEE3"/></linearGradient><pattern id="dots2" width="22" height="22" patternUnits="userSpaceOnUse"><circle cx="2" cy="2" r="1.2" fill="#1D4B3E" opacity="0.07"/></pattern><radialGradient id="glow3" cx="0.9" cy="0.2" r="0.6"><stop offset="0" stop-color="#8FD5BC" stop-opacity="0.55"/><stop offset="1" stop-color="#8FD5BC" stop-opacity="0"/></radialGradient></defs><rect width="800" height="352" fill="url(#bg1)"/><rect width="800" height="352" fill="url(#dots2)"/><rect width="800" height="352" fill="url(#glow3)"/><rect x="30.0" y="30.0" width="330.0" height="292.0" rx="14" fill="#FFFFFF" filter="url(#sh)"/><text x="50.0" y="62.0" font-family="'Plus Jakarta Sans','Inter','Segoe UI',Roboto,'Helvetica Neue',Arial,sans-serif" font-size="16" font-weight="800" fill="#1B2E1F" text-anchor="start" opacity="1">Campaign · Diwali offer</text><text x="50.0" y="84.0" font-family="'Plus Jakarta Sans','Inter','Segoe UI',Roboto,'Helvetica Neue',Arial,sans-serif" font-size="12.5" font-weight="400" fill="#5F6F64" text-anchor="start" opacity="1">1,725 contacts · segment: hot leads</text><rect x="50.0" y="108.0" width="40.0" height="40.0" rx="12.0" fill="#1FA855" filter="url(#sh)"/><g transform="translate(58.8 116.8) scale(0.9333)" fill="none" stroke="#FFFFFF" stroke-width="2.2" stroke-linecap="round" stroke-linejoin="round"><path d="M2.992 16.342a2 2 0 0 1 .094 1.167l-1.065 3.29a1 1 0 0 0 1.236 1.168l3.413-.998a2 2 0 0 1 1.099.092 10 10 0 1 0-4.777-4.719"/></g><text x="102.0" y="125.0" font-family="'Plus Jakarta Sans','Inter','Segoe UI',Roboto,'Helvetica Neue',Arial,sans-serif" font-size="13.5" font-weight="700" fill="#1B2E1F" text-anchor="start" opacity="1">WhatsApp · 1,240 sent</text><rect x="102.0" y="136.0" width="200.0" height="8.0" rx="4" fill="#E5EFEA"/><rect x="102.0" y="136.0" width="182.0" height="8.0" rx="4" fill="#1FA855"/><text x="340.0" y="144.0" font-family="'Plus Jakarta Sans','Inter','Segoe UI',Roboto,'Helvetica Neue',Arial,sans-serif" font-size="12.5" font-weight="700" fill="#5F6F64" text-anchor="end" opacity="1">91%</text><rect x="50.0" y="172.0" width="40.0" height="40.0" rx="12.0" fill="#2563EB" filter="url(#sh)"/><g transform="translate(58.8 180.8) scale(0.9333)" fill="none" stroke="#FFFFFF" stroke-width="2.2" stroke-linecap="round" stroke-linejoin="round"><path d="m22 7-8.991 5.727a2 2 0 0 1-2.009 0L2 7"/><rect x="2" y="4" width="20" height="16" rx="2"/></g><text x="102.0" y="189.0" font-family="'Plus Jakarta Sans','Inter','Segoe UI',Roboto,'Helvetica Neue',Arial,sans-serif" font-size="13.5" font-weight="700" fill="#1B2E1F" text-anchor="start" opacity="1">Email · 1,725 sent</text><rect x="102.0" y="200.0" width="200.0" height="8.0" rx="4" fill="#E5EFEA"/><rect x="102.0" y="200.0" width="92.0" height="8.0" rx="4" fill="#2563EB"/><text x="340.0" y="208.0" font-family="'Plus Jakarta Sans','Inter','Segoe UI',Roboto,'Helvetica Neue',Arial,sans-serif" font-size="12.5" font-weight="700" fill="#5F6F64" text-anchor="end" opacity="1">46%</text><rect x="50.0" y="236.0" width="40.0" height="40.0" rx="12.0" fill="#D9468F" filter="url(#sh)"/><g transform="translate(58.8 244.8) scale(0.9333)" fill="none" stroke="#FFFFFF" stroke-width="2.2" stroke-linecap="round" stroke-linejoin="round"><path d="M13.997 4a2 2 0 0 1 1.76 1.05l.486.9A2 2 0 0 0 18.003 7H20a2 2 0 0 1 2 2v9a2 2 0 0 1-2 2H4a2 2 0 0 1-2-2V9a2 2 0 0 1 2-2h1.997a2 2 0 0 0 1.759-1.048l.489-.904A2 2 0 0 1 10.004 4z"/><circle cx="12" cy="13" r="3"/></g><text x="102.0" y="253.0" font-family="'Plus Jakarta Sans','Inter','Segoe UI',Roboto,'Helvetica Neue',Arial,sans-serif" font-size="13.5" font-weight="700" fill="#1B2E1F" text-anchor="start" opacity="1">Instagram · 380 sent</text><rect x="102.0" y="264.0" width="200.0" height="8.0" rx="4" fill="#E5EFEA"/><rect x="102.0" y="264.0" width="144.0" height="8.0" rx="4" fill="#D9468F"/><text x="340.0" y="272.0" font-family="'Plus Jakarta Sans','Inter','Segoe UI',Roboto,'Helvetica Neue',Arial,sans-serif" font-size="12.5" font-weight="700" fill="#5F6F64" text-anchor="end" opacity="1">72%</text><rect x="50.0" y="292.0" width="165.0" height="24.0" rx="12.0" fill="#E6F4EE"/><g transform="translate(60.0 298.0) scale(0.5000)" fill="none" stroke="#1D4B3E" stroke-width="2.2" stroke-linecap="round" stroke-linejoin="round"><path d="M16 14v2.2l1.6 1"/><path d="M16 2v4"/><path d="M21 7.5V6a2 2 0 0 0-2-2H5a2 2 0 0 0-2 2v14a2 2 0 0 0 2 2h3.5"/><path d="M3 10h5"/><path d="M8 2v4"/><circle cx="16" cy="16" r="6"/></g><text x="75.0" y="308.2" font-family="'Plus Jakarta Sans','Inter','Segoe UI',Roboto,'Helvetica Neue',Arial,sans-serif" font-size="12" font-weight="700" fill="#1D4B3E" text-anchor="start" opacity="1">Schedule · Fri 10:00 AM</text><path d="M360 170 Q 415.0 30, 470 70" fill="none" stroke="#2A7D66" stroke-width="1.4" stroke-linecap="round" stroke-linejoin="round" stroke-dasharray="4 6" opacity="0.55"/><path d="M360 170 Q 470.0 12, 580 52" fill="none" stroke="#2A7D66" stroke-width="1.4" stroke-linecap="round" stroke-linejoin="round" stroke-dasharray="4 6" opacity="0.55"/><path d="M360 170 Q 525.0 46, 690 86" fill="none" stroke="#2A7D66" stroke-width="1.4" stroke-linecap="round" stroke-linejoin="round" stroke-dasharray="4 6" opacity="0.55"/><path d="M360 170 Q 400.0 140, 440 180" fill="none" stroke="#2A7D66" stroke-width="1.4" stroke-linecap="round" stroke-linejoin="round" stroke-dasharray="4 6" opacity="0.55"/><path d="M360 170 Q 460.0 120, 560 160" fill="none" stroke="#2A7D66" stroke-width="1.4" stroke-linecap="round" stroke-linejoin="round" stroke-dasharray="4 6" opacity="0.55"/><path d="M360 170 Q 520.0 160, 680 200" fill="none" stroke="#2A7D66" stroke-width="1.4" stroke-linecap="round" stroke-linejoin="round" stroke-dasharray="4 6" opacity="0.55"/><path d="M360 170 Q 440.0 240, 520 280" fill="none" stroke="#2A7D66" stroke-width="1.4" stroke-linecap="round" stroke-linejoin="round" stroke-dasharray="4 6" opacity="0.55"/><path d="M360 170 Q 500.0 250, 640 290" fill="none" stroke="#2A7D66" stroke-width="1.4" stroke-linecap="round" stroke-linejoin="round" stroke-dasharray="4 6" opacity="0.55"/><path d="M360 170 Q 550.0 230, 740 270" fill="none" stroke="#2A7D66" stroke-width="1.4" stroke-linecap="round" stroke-linejoin="round" stroke-dasharray="4 6" opacity="0.55"/><circle cx="470.0" cy="70.0" r="21" fill="#2A7D66"/><text x="470.0" y="77.6" font-family="'Plus Jakarta Sans','Inter','Segoe UI',Roboto,'Helvetica Neue',Arial,sans-serif" font-size="19.95" font-weight="700" fill="#FFFFFF" text-anchor="middle" opacity="1">AK</text><circle cx="486.0" cy="86.0" r="9" fill="#1FA855"/><g transform="translate(480.0 80.0) scale(0.5000)" fill="none" stroke="#FFFFFF" stroke-width="2.4" stroke-linecap="round" stroke-linejoin="round"><path d="M2.992 16.342a2 2 0 0 1 .094 1.167l-1.065 3.29a1 1 0 0 0 1.236 1.168l3.413-.998a2 2 0 0 1 1.099.092 10 10 0 1 0-4.777-4.719"/></g><circle cx="580.0" cy="52.0" r="21" fill="#7C3AED"/><text x="580.0" y="59.6" font-family="'Plus Jakarta Sans','Inter','Segoe UI',Roboto,'Helvetica Neue',Arial,sans-serif" font-size="19.95" font-weight="700" fill="#FFFFFF" text-anchor="middle" opacity="1">BL</text><circle cx="596.0" cy="68.0" r="9" fill="#2563EB"/><g transform="translate(590.0 62.0) scale(0.5000)" fill="none" stroke="#FFFFFF" stroke-width="2.4" stroke-linecap="round" stroke-linejoin="round"><path d="m22 7-8.991 5.727a2 2 0 0 1-2.009 0L2 7"/><rect x="2" y="4" width="20" height="16" rx="2"/></g><circle cx="690.0" cy="86.0" r="21" fill="#D97706"/><text x="690.0" y="93.6" font-family="'Plus Jakarta Sans','Inter','Segoe UI',Roboto,'Helvetica Neue',Arial,sans-serif" font-size="19.95" font-weight="700" fill="#FFFFFF" text-anchor="middle" opacity="1">CM</text><circle cx="706.0" cy="102.0" r="9" fill="#D9468F"/><g transform="translate(700.0 96.0) scale(0.5000)" fill="none" stroke="#FFFFFF" stroke-width="2.4" stroke-linecap="round" stroke-linejoin="round"><path d="M13.997 4a2 2 0 0 1 1.76 1.05l.486.9A2 2 0 0 0 18.003 7H20a2 2 0 0 1 2 2v9a2 2 0 0 1-2 2H4a2 2 0 0 1-2-2V9a2 2 0 0 1 2-2h1.997a2 2 0 0 0 1.759-1.048l.489-.904A2 2 0 0 1 10.004 4z"/><circle cx="12" cy="13" r="3"/></g><circle cx="440.0" cy="180.0" r="21" fill="#2563EB"/><text x="440.0" y="187.6" font-family="'Plus Jakarta Sans','Inter','Segoe UI',Roboto,'Helvetica Neue',Arial,sans-serif" font-size="19.95" font-weight="700" fill="#FFFFFF" text-anchor="middle" opacity="1">DN</text><circle cx="456.0" cy="196.0" r="9" fill="#1FA855"/><g transform="translate(450.0 190.0) scale(0.5000)" fill="none" stroke="#FFFFFF" stroke-width="2.4" stroke-linecap="round" stroke-linejoin="round"><path d="M2.992 16.342a2 2 0 0 1 .094 1.167l-1.065 3.29a1 1 0 0 0 1.236 1.168l3.413-.998a2 2 0 0 1 1.099.092 10 10 0 1 0-4.777-4.719"/></g><circle cx="560.0" cy="160.0" r="21" fill="#E5484D"/><text x="560.0" y="167.6" font-family="'Plus Jakarta Sans','Inter','Segoe UI',Roboto,'Helvetica Neue',Arial,sans-serif" font-size="19.95" font-weight="700" fill="#FFFFFF" text-anchor="middle" opacity="1">EP</text><circle cx="576.0" cy="176.0" r="9" fill="#2563EB"/><g transform="translate(570.0 170.0) scale(0.5000)" fill="none" stroke="#FFFFFF" stroke-width="2.4" stroke-linecap="round" stroke-linejoin="round"><path d="m22 7-8.991 5.727a2 2 0 0 1-2.009 0L2 7"/><rect x="2" y="4" width="20" height="16" rx="2"/></g><circle cx="680.0" cy="200.0" r="21" fill="#2A7D66"/><text x="680.0" y="207.6" font-family="'Plus Jakarta Sans','Inter','Segoe UI',Roboto,'Helvetica Neue',Arial,sans-serif" font-size="19.95" font-weight="700" fill="#FFFFFF" text-anchor="middle" opacity="1">FR</text><circle cx="696.0" cy="216.0" r="9" fill="#D9468F"/><g transform="translate(690.0 210.0) scale(0.5000)" fill="none" stroke="#FFFFFF" stroke-width="2.4" stroke-linecap="round" stroke-linejoin="round"><path d="M13.997 4a2 2 0 0 1 1.76 1.05l.486.9A2 2 0 0 0 18.003 7H20a2 2 0 0 1 2 2v9a2 2 0 0 1-2 2H4a2 2 0 0 1-2-2V9a2 2 0 0 1 2-2h1.997a2 2 0 0 0 1.759-1.048l.489-.904A2 2 0 0 1 10.004 4z"/><circle cx="12" cy="13" r="3"/></g><circle cx="520.0" cy="280.0" r="21" fill="#7C3AED"/><text x="520.0" y="287.6" font-family="'Plus Jakarta Sans','Inter','Segoe UI',Roboto,'Helvetica Neue',Arial,sans-serif" font-size="19.95" font-weight="700" fill="#FFFFFF" text-anchor="middle" opacity="1">GS</text><circle cx="536.0" cy="296.0" r="9" fill="#1FA855"/><g transform="translate(530.0 290.0) scale(0.5000)" fill="none" stroke="#FFFFFF" stroke-width="2.4" stroke-linecap="round" stroke-linejoin="round"><path d="M2.992 16.342a2 2 0 0 1 .094 1.167l-1.065 3.29a1 1 0 0 0 1.236 1.168l3.413-.998a2 2 0 0 1 1.099.092 10 10 0 1 0-4.777-4.719"/></g><circle cx="640.0" cy="290.0" r="21" fill="#D97706"/><text x="640.0" y="297.6" font-family="'Plus Jakarta Sans','Inter','Segoe UI',Roboto,'Helvetica Neue',Arial,sans-serif" font-size="19.95" font-weight="700" fill="#FFFFFF" text-anchor="middle" opacity="1">HT</text><circle cx="656.0" cy="306.0" r="9" fill="#2563EB"/><g transform="translate(650.0 300.0) scale(0.5000)" fill="none" stroke="#FFFFFF" stroke-width="2.4" stroke-linecap="round" stroke-linejoin="round"><path d="m22 7-8.991 5.727a2 2 0 0 1-2.009 0L2 7"/><rect x="2" y="4" width="20" height="16" rx="2"/></g><circle cx="740.0" cy="270.0" r="21" fill="#2563EB"/><text x="740.0" y="277.6" font-family="'Plus Jakarta Sans','Inter','Segoe UI',Roboto,'Helvetica Neue',Arial,sans-serif" font-size="19.95" font-weight="700" fill="#FFFFFF" text-anchor="middle" opacity="1">JV</text><circle cx="756.0" cy="286.0" r="9" fill="#D9468F"/><g transform="translate(750.0 280.0) scale(0.5000)" fill="none" stroke="#FFFFFF" stroke-width="2.4" stroke-linecap="round" stroke-linejoin="round"><path d="M13.997 4a2 2 0 0 1 1.76 1.05l.486.9A2 2 0 0 0 18.003 7H20a2 2 0 0 1 2 2v9a2 2 0 0 1-2 2H4a2 2 0 0 1-2-2V9a2 2 0 0 1 2-2h1.997a2 2 0 0 0 1.759-1.048l.489-.904A2 2 0 0 1 10.004 4z"/><circle cx="12" cy="13" r="3"/></g></svg>